<svg xmlns="http://www.w3.org/2000/svg" viewBox="0 0 500 500"><g id="freepik--Charts--inject-2"><g id="freepik--charts--inject-2"><path d="M107,181.59c0,11.5-6.53,24.86-14.58,29.85s-14.57-.31-14.57-11.81,6.53-24.86,14.57-29.84v22.07l13.87-16.26A23.49,23.49,0,0,1,107,181.59Z" style="fill:#455a64"></path><path d="M107.59,172.39c-1.9-7.18-7.39-9.82-13.87-5.81v22.07Z" style="fill:#BA68C8"></path><path d="M140.32,163.58l8.57,11.55a27.71,27.71,0,0,1-8.57,9.27c-8,5-14.57-.3-14.57-11.8s6.52-24.86,14.57-29.85Z" style="fill:#455a64"></path><path d="M151.1,174.23a41.59,41.59,0,0,0,6-20.56c0-11.51-6.53-16.79-14.57-11.81v20.82Z" style="fill:#BA68C8"></path><path d="M234.08,88V108.8L220.21,111C222.11,101.42,227.6,92,234.08,88Z" style="fill:#455a64"></path><path d="M222.67,113.34a35.3,35.3,0,0,0-.71,6.87c0,11.5,6.53,16.79,14.58,11.81s14.57-18.34,14.57-29.84-6.53-16.79-14.57-11.81V111.2Z" style="fill:#BA68C8"></path><path d="M187.91,114.25v20.83l-8.56,22.15c-3.64-1.53-6-6.21-6-13.14C173.34,132.6,179.86,119.23,187.91,114.25Z" style="fill:#455a64"></path><path d="M181.69,157.89c2.4,1,5.36.66,8.56-1.32,8.05-5,14.58-18.34,14.58-29.84s-6.53-16.79-14.58-11.81v20.82Z" style="fill:#BA68C8"></path><path d="M83.58,239.11V232.3a.54.54,0,0,1,.25-.43L101,221.81c.14-.08.25,0,.25.14v6.8a.56.56,0,0,1-.25.44L83.83,239.25C83.69,239.33,83.58,239.27,83.58,239.11Z" style="fill:#BA68C8"></path><path d="M131.32,211.68v-6.8a.56.56,0,0,1,.25-.44l17.21-10.06c.14-.08.25,0,.25.15v6.8a.56.56,0,0,1-.25.44l-17.21,10.06C131.43,211.91,131.32,211.84,131.32,211.68Z" style="fill:#BA68C8"></path><path d="M179.06,184.26v-6.8a.56.56,0,0,1,.25-.44L196.52,167c.14-.08.25,0,.25.15v6.8a.54.54,0,0,1-.25.43l-17.21,10.07C179.17,184.49,179.06,184.42,179.06,184.26Z" style="fill:#BA68C8"></path><path d="M226.8,156.84V150a.54.54,0,0,1,.25-.44l17.21-10.06c.14-.08.25,0,.25.14v6.8a.54.54,0,0,1-.25.44L227.05,157C226.91,157.06,226.8,157,226.8,156.84Z" style="fill:#BA68C8"></path></g><g id="freepik--Graph--inject-2"><polygon points="298.08 126.27 279.02 159.04 259.96 215.25 240.9 204.82 221.83 257.26 202.77 246.83 183.71 258.25 164.65 284.65 145.59 283.27 126.53 322.4 107.47 321.32 88.41 347.83 88.41 373.24 92.7 375.72 302.37 254.64 302.37 128.75 298.08 126.27" style="fill:#263238"></polygon><polygon points="92.7 350.31 111.76 323.8 130.82 324.88 149.88 285.75 168.94 287.13 188 260.73 207.07 249.31 226.13 259.74 245.19 207.3 264.25 217.73 283.31 161.52 302.37 128.75 302.37 254.64 92.7 375.72 92.7 350.31" style="fill:#455a64"></polygon><polygon points="88.41 347.83 92.7 350.31 111.76 323.8 107.47 321.32 88.41 347.83" style="fill:#37474f"></polygon><polygon points="145.59 283.27 149.88 285.75 130.82 324.88 126.53 322.4 145.59 283.27" style="fill:#37474f"></polygon><polygon points="164.65 284.65 168.94 287.13 188 260.73 183.71 258.25 164.65 284.65" style="fill:#37474f"></polygon><polygon points="240.9 204.82 245.19 207.3 226.13 259.74 221.83 257.26 240.9 204.82" style="fill:#37474f"></polygon><polygon points="279.02 159.04 283.31 161.52 264.25 217.73 259.96 215.25 279.02 159.04" style="fill:#37474f"></polygon><path d="M282.21,136.44a.43.43,0,0,1-.37-.68l16.29-24.58a.44.44,0,0,1,.73.49l-16.29,24.58A.44.44,0,0,1,282.21,136.44Z" style="fill:#455a64"></path><path d="M262.39,192.26a.35.35,0,0,1-.14,0,.44.44,0,0,1-.28-.56l16.3-48a.44.44,0,0,1,.56-.28.44.44,0,0,1,.27.56L262.81,192A.45.45,0,0,1,262.39,192.26Z" style="fill:#455a64"></path><path d="M258.85,195.16a.42.42,0,0,1-.21-.06l-13.25-7.24a.43.43,0,0,1-.17-.59.44.44,0,0,1,.6-.18l13.25,7.24a.44.44,0,0,1,.17.6A.45.45,0,0,1,258.85,195.16Z" style="fill:#455a64"></path><path d="M225.87,235.12a.4.4,0,0,1-.15,0,.44.44,0,0,1-.27-.56l16.11-44.32a.45.45,0,0,1,.57-.27.44.44,0,0,1,.26.57l-16.11,44.32A.43.43,0,0,1,225.87,235.12Z" style="fill:#455a64"></path><path d="M222.24,238A.54.54,0,0,1,222,238l-14.75-8.08a.44.44,0,0,1,.43-.77l14.75,8.07a.44.44,0,0,1,.17.6A.43.43,0,0,1,222.24,238Z" style="fill:#455a64"></path><path d="M189.08,238.48a.42.42,0,0,1-.37-.21.44.44,0,0,1,.15-.61l13.42-8a.44.44,0,0,1,.45.76l-13.42,8A.46.46,0,0,1,189.08,238.48Z" style="fill:#455a64"></path><path d="M169.69,263.13a.45.45,0,0,1-.36-.7l14.31-19.82a.44.44,0,0,1,.72.52l-14.31,19.81A.42.42,0,0,1,169.69,263.13Z" style="fill:#455a64"></path><path d="M164.6,266.38h0l-13.88-1a.44.44,0,0,1-.41-.47.43.43,0,0,1,.47-.41l13.88,1a.44.44,0,0,1,.41.47A.45.45,0,0,1,164.6,266.38Z" style="fill:#455a64"></path><path d="M131.05,300.28a.45.45,0,0,1-.19,0,.43.43,0,0,1-.2-.59l15.15-31.11a.45.45,0,0,1,.59-.2.44.44,0,0,1,.2.59L131.45,300A.44.44,0,0,1,131.05,300.28Z" style="fill:#455a64"></path><path d="M126.48,304.17h0l-13.9-.79a.44.44,0,0,1,0-.88l13.9.79a.44.44,0,0,1,0,.88Z" style="fill:#455a64"></path><path d="M91,329.75a.43.43,0,0,1-.26-.09.44.44,0,0,1-.1-.61l16.65-23.16a.46.46,0,0,1,.62-.1.45.45,0,0,1,.1.62L91.32,329.56A.45.45,0,0,1,91,329.75Z" style="fill:#455a64"></path><path d="M108.9,307.35a1.85,1.85,0,0,1-1-.25,2.94,2.94,0,0,1-1.2-2.67,7.14,7.14,0,0,1,3-5.78,2.24,2.24,0,0,1,2.3-.15,2.93,2.93,0,0,1,1.19,2.67,7.15,7.15,0,0,1-3.05,5.78A2.64,2.64,0,0,1,108.9,307.35Zm2.25-8.22a2,2,0,0,0-.91.28,6.31,6.31,0,0,0-2.6,5,2.12,2.12,0,0,0,.75,1.91,1.44,1.44,0,0,0,1.41-.15,6.29,6.29,0,0,0,2.61-5,2.1,2.1,0,0,0-.76-1.91A1,1,0,0,0,111.15,299.13Z" style="fill:#455a64"></path><path d="M147,269.42a1.85,1.85,0,0,1-1-.25,2.93,2.93,0,0,1-1.19-2.67,7.17,7.17,0,0,1,3.05-5.79,2.27,2.27,0,0,1,2.29-.15,3,3,0,0,1,1.2,2.67,7.17,7.17,0,0,1-3,5.79A2.68,2.68,0,0,1,147,269.42Zm2.25-8.22a1.8,1.8,0,0,0-.9.28,6.29,6.29,0,0,0-2.61,5,2.11,2.11,0,0,0,.76,1.91,1.44,1.44,0,0,0,1.41-.15,6.33,6.33,0,0,0,2.6-5,2.11,2.11,0,0,0-.75-1.9A1,1,0,0,0,149.27,261.2Z" style="fill:#455a64"></path><path d="M128,308.23A1.85,1.85,0,0,1,127,308a2.94,2.94,0,0,1-1.2-2.67,7.15,7.15,0,0,1,3.05-5.78,2.24,2.24,0,0,1,2.3-.15,2.93,2.93,0,0,1,1.19,2.67,7.14,7.14,0,0,1-3,5.78A2.68,2.68,0,0,1,128,308.23Zm2.25-8.22a1.87,1.87,0,0,0-.9.28,6.29,6.29,0,0,0-2.61,5,2.12,2.12,0,0,0,.75,1.91,1.44,1.44,0,0,0,1.41-.15,6.29,6.29,0,0,0,2.61-5,2.12,2.12,0,0,0-.75-1.91A1.07,1.07,0,0,0,130.21,300Z" style="fill:#455a64"></path><path d="M166.08,270.45a1.85,1.85,0,0,1-1-.25,2.93,2.93,0,0,1-1.19-2.67,7.14,7.14,0,0,1,3.05-5.78,2.22,2.22,0,0,1,2.29-.15,2.94,2.94,0,0,1,1.2,2.67,7.15,7.15,0,0,1-3,5.78A2.68,2.68,0,0,1,166.08,270.45Zm2.25-8.22a1.91,1.91,0,0,0-.9.28,6.29,6.29,0,0,0-2.61,5,2.1,2.1,0,0,0,.76,1.91,1.42,1.42,0,0,0,1.41-.15,6.31,6.31,0,0,0,2.6-5,2.12,2.12,0,0,0-.75-1.91A1.07,1.07,0,0,0,168.33,262.23Z" style="fill:#455a64"></path><path d="M185.14,243.86a1.84,1.84,0,0,1-.94-.25,2.92,2.92,0,0,1-1.2-2.67,7.15,7.15,0,0,1,3.05-5.78,2.22,2.22,0,0,1,2.29-.15,2.94,2.94,0,0,1,1.2,2.67,7.14,7.14,0,0,1-3,5.78A2.68,2.68,0,0,1,185.14,243.86Zm2.25-8.22a1.91,1.91,0,0,0-.9.28,6.29,6.29,0,0,0-2.61,5,2.13,2.13,0,0,0,.76,1.91,1.44,1.44,0,0,0,1.41-.15,6.29,6.29,0,0,0,2.61-5,2.13,2.13,0,0,0-.76-1.91A1.07,1.07,0,0,0,187.39,235.64Z" style="fill:#455a64"></path><path d="M204.2,232.86a1.84,1.84,0,0,1-.94-.25,2.94,2.94,0,0,1-1.2-2.67,7.17,7.17,0,0,1,3.05-5.79,2.24,2.24,0,0,1,2.29-.15,3,3,0,0,1,1.2,2.67,7.17,7.17,0,0,1-3,5.79A2.68,2.68,0,0,1,204.2,232.86Zm2.25-8.23a1.81,1.81,0,0,0-.9.29,6.29,6.29,0,0,0-2.61,5,2.11,2.11,0,0,0,.76,1.9,1.41,1.41,0,0,0,1.41-.14,6.31,6.31,0,0,0,2.61-5,2.11,2.11,0,0,0-.76-1.9A1,1,0,0,0,206.45,224.63Z" style="fill:#455a64"></path><path d="M223.27,243.29a1.85,1.85,0,0,1-1-.25,2.94,2.94,0,0,1-1.2-2.67,7.14,7.14,0,0,1,3-5.78,2.22,2.22,0,0,1,2.29-.15,2.94,2.94,0,0,1,1.2,2.67,7.15,7.15,0,0,1-3,5.78A2.67,2.67,0,0,1,223.27,243.29Zm2.24-8.22a1.91,1.91,0,0,0-.9.28,6.42,6.42,0,0,0-2.61,5,2.13,2.13,0,0,0,.76,1.91,1.44,1.44,0,0,0,1.41-.15,6.29,6.29,0,0,0,2.61-5,2.13,2.13,0,0,0-.76-1.91A1,1,0,0,0,225.51,235.07Z" style="fill:#455a64"></path><path d="M242.33,190.85a1.85,1.85,0,0,1-1-.25,2.94,2.94,0,0,1-1.2-2.67,7.17,7.17,0,0,1,3-5.79,2.24,2.24,0,0,1,2.29-.14,2.92,2.92,0,0,1,1.2,2.66,7.17,7.17,0,0,1-3.05,5.79A2.67,2.67,0,0,1,242.33,190.85Zm2.24-8.22a1.84,1.84,0,0,0-.9.28,6.29,6.29,0,0,0-2.61,5,2.14,2.14,0,0,0,.76,1.91,1.44,1.44,0,0,0,1.41-.15,6.31,6.31,0,0,0,2.61-5,2.12,2.12,0,0,0-.76-1.9A.93.93,0,0,0,244.57,182.63Z" style="fill:#455a64"></path><path d="M259.88,200.45a2,2,0,0,1-.95-.25,2.94,2.94,0,0,1-1.19-2.67,7.17,7.17,0,0,1,3.05-5.79,2.22,2.22,0,0,1,2.29-.15,2.94,2.94,0,0,1,1.2,2.67,7.17,7.17,0,0,1-3,5.79A2.78,2.78,0,0,1,259.88,200.45Zm2.25-8.23a1.91,1.91,0,0,0-.9.28,6.31,6.31,0,0,0-2.61,5,2.11,2.11,0,0,0,.76,1.9,1.42,1.42,0,0,0,1.41-.15,6.29,6.29,0,0,0,2.61-5,2.14,2.14,0,0,0-.76-1.91A1.07,1.07,0,0,0,262.13,192.22Z" style="fill:#455a64"></path><path d="M278.94,144.23A1.84,1.84,0,0,1,278,144a2.94,2.94,0,0,1-1.2-2.67,7.15,7.15,0,0,1,3.05-5.78,2.22,2.22,0,0,1,2.29-.15,2.94,2.94,0,0,1,1.2,2.67,7.14,7.14,0,0,1-3,5.78A2.68,2.68,0,0,1,278.94,144.23Zm2.25-8.22a1.91,1.91,0,0,0-.9.28,6.29,6.29,0,0,0-2.61,5,2.13,2.13,0,0,0,.76,1.91,1.41,1.41,0,0,0,1.41-.15,6.42,6.42,0,0,0,2.61-5,2.13,2.13,0,0,0-.76-1.91A1,1,0,0,0,281.19,136Z" style="fill:#455a64"></path><path d="M299.51,112.3a2,2,0,0,1-.95-.25,2.94,2.94,0,0,1-1.2-2.67,7.17,7.17,0,0,1,3.05-5.79,2.26,2.26,0,0,1,2.3-.15,2.94,2.94,0,0,1,1.2,2.67,7.17,7.17,0,0,1-3.05,5.79A2.78,2.78,0,0,1,299.51,112.3Zm2.25-8.23a1.87,1.87,0,0,0-.9.28,6.32,6.32,0,0,0-2.61,5,2.1,2.1,0,0,0,.75,1.9,1.43,1.43,0,0,0,1.41-.14,6.32,6.32,0,0,0,2.61-5,2.1,2.1,0,0,0-.75-1.9A1,1,0,0,0,301.76,104.07Z" style="fill:#455a64"></path></g><g id="freepik--graph--inject-2"><path d="M319.14,134.75a.46.46,0,0,1-.2-.05.44.44,0,0,1-.19-.6l15.06-28.77a.44.44,0,0,1,.59-.19.44.44,0,0,1,.19.6l-15.06,28.77A.44.44,0,0,1,319.14,134.75Z" style="fill:#BA68C8"></path><path d="M299.34,196.3a.32.32,0,0,1-.13,0,.44.44,0,0,1-.29-.55l16.53-53.63a.45.45,0,0,1,.56-.29.44.44,0,0,1,.29.55L299.76,196A.43.43,0,0,1,299.34,196.3Z" style="fill:#BA68C8"></path><path d="M296.08,198.89a.46.46,0,0,1-.27-.09l-15.06-11.38a.44.44,0,0,1,.53-.71l15.06,11.39a.44.44,0,0,1,.09.62A.46.46,0,0,1,296.08,198.89Z" style="fill:#BA68C8"></path><path d="M261.44,234.21l-.15,0a.45.45,0,0,1-.27-.57l16.1-44.16a.44.44,0,0,1,.83.31l-16.1,44.15A.43.43,0,0,1,261.44,234.21Z" style="fill:#BA68C8"></path><path d="M257.56,237.67l-.11,0L243.18,234a.46.46,0,0,1-.32-.54.44.44,0,0,1,.54-.32l14.27,3.64a.44.44,0,0,1,.32.53A.45.45,0,0,1,257.56,237.67Z" style="fill:#BA68C8"></path><path d="M223.39,283.82l-.15,0a.44.44,0,0,1-.27-.56l16.09-46.33a.45.45,0,0,1,.57-.27.44.44,0,0,1,.27.56l-16.1,46.33A.44.44,0,0,1,223.39,283.82Z" style="fill:#BA68C8"></path><path d="M219.78,286.46a.48.48,0,0,1-.29-.11l-15.2-13.56a.44.44,0,1,1,.58-.66l15.21,13.56a.43.43,0,0,1,0,.62A.41.41,0,0,1,219.78,286.46Z" style="fill:#BA68C8"></path><path d="M200.3,270.66h-.11L186,267a.44.44,0,1,1,.21-.85l14.16,3.6a.44.44,0,0,1-.11.87Z" style="fill:#BA68C8"></path><path d="M166.41,307.13a.38.38,0,0,1-.17,0,.43.43,0,0,1-.23-.57l15.56-36.61a.44.44,0,1,1,.81.34l-15.56,36.61A.43.43,0,0,1,166.41,307.13Z" style="fill:#BA68C8"></path><path d="M148.27,313.5a.44.44,0,0,1-.43-.39.42.42,0,0,1,.37-.49l13.66-1.85a.44.44,0,0,1,.12.87l-13.66,1.85Z" style="fill:#BA68C8"></path><path d="M126.53,350.28a.54.54,0,0,1-.21,0,.44.44,0,0,1-.18-.6L143.2,317a.44.44,0,1,1,.78.4L126.92,350A.44.44,0,0,1,126.53,350.28Z" style="fill:#BA68C8"></path><path d="M144.46,318a1.84,1.84,0,0,1-.94-.25,2.94,2.94,0,0,1-1.2-2.67,7.14,7.14,0,0,1,3.05-5.78,2.22,2.22,0,0,1,2.29-.15,2.94,2.94,0,0,1,1.2,2.67,7.15,7.15,0,0,1-3.05,5.78A2.68,2.68,0,0,1,144.46,318Zm2.25-8.22a1.91,1.91,0,0,0-.9.28,6.29,6.29,0,0,0-2.61,5A2.13,2.13,0,0,0,144,317a1.44,1.44,0,0,0,1.41-.15,6.29,6.29,0,0,0,2.61-5,2.13,2.13,0,0,0-.76-1.91A1,1,0,0,0,146.71,309.75Z" style="fill:#BA68C8"></path><path d="M182.59,270.67a1.85,1.85,0,0,1-1-.25,2.94,2.94,0,0,1-1.2-2.67,7.17,7.17,0,0,1,3.05-5.79,2.27,2.27,0,0,1,2.29-.15,2.93,2.93,0,0,1,1.2,2.67,7.17,7.17,0,0,1-3,5.79A2.67,2.67,0,0,1,182.59,270.67Zm2.24-8.23a1.84,1.84,0,0,0-.9.29,6.29,6.29,0,0,0-2.61,5,2.14,2.14,0,0,0,.76,1.91,1.44,1.44,0,0,0,1.41-.15,6.31,6.31,0,0,0,2.61-5,2.11,2.11,0,0,0-.76-1.9A.94.94,0,0,0,184.83,262.44Z" style="fill:#BA68C8"></path><path d="M163.53,315.19a1.85,1.85,0,0,1-.95-.25,2.94,2.94,0,0,1-1.2-2.67,7.17,7.17,0,0,1,3.05-5.79,2.24,2.24,0,0,1,2.29-.15,3,3,0,0,1,1.2,2.67,7.17,7.17,0,0,1-3,5.79A2.67,2.67,0,0,1,163.53,315.19Zm2.24-8.23a1.81,1.81,0,0,0-.9.29,6.39,6.39,0,0,0-2.61,5,2.14,2.14,0,0,0,.76,1.91,1.44,1.44,0,0,0,1.41-.15,6.42,6.42,0,0,0,2.61-5,2.11,2.11,0,0,0-.76-1.9A1,1,0,0,0,165.77,307Z" style="fill:#BA68C8"></path><path d="M201.65,275.18a1.85,1.85,0,0,1-1-.25,2.94,2.94,0,0,1-1.2-2.67,7.17,7.17,0,0,1,3.05-5.79,2.24,2.24,0,0,1,2.29-.15A2.92,2.92,0,0,1,206,269a7.17,7.17,0,0,1-3,5.79A2.75,2.75,0,0,1,201.65,275.18ZM203.9,267a2,2,0,0,0-.91.28,6.41,6.41,0,0,0-2.6,5,2.1,2.1,0,0,0,.75,1.9,1.44,1.44,0,0,0,1.41-.14,6.32,6.32,0,0,0,2.61-5,2.08,2.08,0,0,0-.76-1.9A.93.93,0,0,0,203.9,267Z" style="fill:#BA68C8"></path><path d="M220.71,292a1.85,1.85,0,0,1-1-.25,2.94,2.94,0,0,1-1.2-2.67,7.17,7.17,0,0,1,3.05-5.79,2.26,2.26,0,0,1,2.3-.15,2.94,2.94,0,0,1,1.19,2.67,7.17,7.17,0,0,1-3,5.79A2.64,2.64,0,0,1,220.71,292Zm2.25-8.22a1.84,1.84,0,0,0-.91.28,6.38,6.38,0,0,0-2.6,5,2.13,2.13,0,0,0,.75,1.91,1.44,1.44,0,0,0,1.41-.15,6.31,6.31,0,0,0,2.61-5,2.09,2.09,0,0,0-.76-1.9A.91.91,0,0,0,223,283.76Z" style="fill:#BA68C8"></path><path d="M239.77,237.53a1.85,1.85,0,0,1-1-.25,2.94,2.94,0,0,1-1.2-2.67,7.14,7.14,0,0,1,3-5.78,2.24,2.24,0,0,1,2.3-.15,2.94,2.94,0,0,1,1.2,2.67,7.15,7.15,0,0,1-3,5.78A2.68,2.68,0,0,1,239.77,237.53Zm2.25-8.22a1.77,1.77,0,0,0-.9.28,6.39,6.39,0,0,0-2.61,5,2.12,2.12,0,0,0,.75,1.91,1.44,1.44,0,0,0,1.41-.15,6.39,6.39,0,0,0,2.61-5,2.12,2.12,0,0,0-.75-1.91A1.07,1.07,0,0,0,242,229.31Z" style="fill:#BA68C8"></path><path d="M258.83,242.39a2,2,0,0,1-.95-.25,2.94,2.94,0,0,1-1.19-2.67,7.17,7.17,0,0,1,3.05-5.79,2.24,2.24,0,0,1,2.29-.15,2.94,2.94,0,0,1,1.2,2.67,7.17,7.17,0,0,1-3.05,5.79A2.78,2.78,0,0,1,258.83,242.39Zm2.25-8.23a1.91,1.91,0,0,0-.9.28,6.31,6.31,0,0,0-2.61,5,2.08,2.08,0,0,0,.76,1.9,1.42,1.42,0,0,0,1.41-.15,6.31,6.31,0,0,0,2.6-5,2.13,2.13,0,0,0-.75-1.91A1.07,1.07,0,0,0,261.08,234.16Z" style="fill:#BA68C8"></path><path d="M277.89,190.11a2,2,0,0,1-.95-.25,2.94,2.94,0,0,1-1.19-2.67,7.17,7.17,0,0,1,3.05-5.79,2.22,2.22,0,0,1,2.29-.15,2.94,2.94,0,0,1,1.2,2.67,7.17,7.17,0,0,1-3.05,5.79A2.78,2.78,0,0,1,277.89,190.11Zm2.25-8.23a1.91,1.91,0,0,0-.9.28,6.39,6.39,0,0,0-2.61,5,2.08,2.08,0,0,0,.76,1.9,1.42,1.42,0,0,0,1.41-.15,6.38,6.38,0,0,0,2.6-5,2.13,2.13,0,0,0-.75-1.91A1.07,1.07,0,0,0,280.14,181.88Z" style="fill:#BA68C8"></path><path d="M297,204.52a1.94,1.94,0,0,1-.94-.25,3,3,0,0,1-1.2-2.67,7.17,7.17,0,0,1,3.05-5.79,2.22,2.22,0,0,1,2.29-.15,2.94,2.94,0,0,1,1.2,2.67,7.17,7.17,0,0,1-3.05,5.79A2.78,2.78,0,0,1,297,204.52Zm2.25-8.23a1.91,1.91,0,0,0-.9.28,6.31,6.31,0,0,0-2.61,5,2.11,2.11,0,0,0,.76,1.9,1.41,1.41,0,0,0,1.41-.15,6.29,6.29,0,0,0,2.61-5,2.14,2.14,0,0,0-.76-1.91A1,1,0,0,0,299.2,196.29Z" style="fill:#BA68C8"></path><path d="M316,142.68a1.85,1.85,0,0,1-.95-.25,2.94,2.94,0,0,1-1.2-2.67,7.14,7.14,0,0,1,3.05-5.78,2.22,2.22,0,0,1,2.29-.15,2.94,2.94,0,0,1,1.2,2.67,7.15,7.15,0,0,1-3.05,5.78A2.67,2.67,0,0,1,316,142.68Zm2.24-8.22a1.91,1.91,0,0,0-.9.28,6.29,6.29,0,0,0-2.61,5,2.13,2.13,0,0,0,.76,1.91,1.44,1.44,0,0,0,1.41-.15,6.29,6.29,0,0,0,2.61-5,2.13,2.13,0,0,0-.76-1.91A1,1,0,0,0,318.26,134.46Z" style="fill:#BA68C8"></path><path d="M335.08,106.26a1.85,1.85,0,0,1-.95-.25,2.94,2.94,0,0,1-1.2-2.67A7.14,7.14,0,0,1,336,97.56a2.22,2.22,0,0,1,2.29-.15,2.94,2.94,0,0,1,1.2,2.67,7.15,7.15,0,0,1-3.05,5.78A2.67,2.67,0,0,1,335.08,106.26ZM337.32,98a1.91,1.91,0,0,0-.9.28,6.29,6.29,0,0,0-2.61,5,2.13,2.13,0,0,0,.76,1.91,1.44,1.44,0,0,0,1.41-.15,6.29,6.29,0,0,0,2.61-5,2.13,2.13,0,0,0-.76-1.91A1,1,0,0,0,337.32,98Z" style="fill:#BA68C8"></path><polygon points="336.2 121.71 317.14 158.13 298.27 219.34 283.31 208.03 279.02 205.55 259.96 257.83 240.9 252.98 222.19 306.81 207.07 293.33 202.77 290.85 183.71 285.99 164.65 330.83 145.59 333.42 126.53 369.84 126.53 395.25 130.82 397.73 340.5 276.68 340.5 124.19 336.2 121.71" style="fill:#BA68C8;opacity:0.4"></polygon><polygon points="130.82 372.31 149.88 335.89 168.94 333.31 188 288.47 207.07 293.33 226.13 310.32 245.19 255.46 264.25 260.31 283.31 208.03 302.37 222.44 321.43 160.61 340.5 124.19 340.5 276.68 130.82 397.73 130.82 372.31" style="fill:#BA68C8;opacity:0.30000000000000004"></polygon><polygon points="126.53 369.84 130.82 372.31 130.82 397.73 126.53 395.25 126.53 369.84" style="fill:#BA68C8"></polygon><polygon points="126.53 369.84 130.82 372.31 130.82 397.73 126.53 395.25 126.53 369.84" style="opacity:0.05"></polygon><polygon points="164.65 330.83 168.94 333.31 188 288.47 183.71 285.99 164.65 330.83" style="fill:#BA68C8;opacity:0.30000000000000004"></polygon><polygon points="164.65 330.83 168.94 333.31 188 288.47 183.71 285.99 164.65 330.83" style="opacity:0.15"></polygon><polygon points="145.59 333.42 149.88 335.89 130.82 372.31 126.53 369.84 145.59 333.42" style="fill:#BA68C8;opacity:0.30000000000000004"></polygon><polygon points="145.59 333.42 149.88 335.89 130.82 372.31 126.53 369.84 145.59 333.42" style="opacity:0.15"></polygon><polygon points="245.19 255.46 240.9 252.98 222.19 306.81 226.13 310.32 245.19 255.46" style="fill:#BA68C8;opacity:0.30000000000000004"></polygon><polygon points="245.19 255.46 240.9 252.98 222.19 306.81 226.13 310.32 245.19 255.46" style="opacity:0.15"></polygon><polygon points="259.96 257.83 264.25 260.31 283.31 208.03 279.02 205.55 259.96 257.83" style="fill:#BA68C8;opacity:0.30000000000000004"></polygon><polygon points="259.96 257.83 264.25 260.31 283.31 208.03 279.02 205.55 259.96 257.83" style="opacity:0.15"></polygon><polygon points="321.43 160.61 317.14 158.13 298.27 219.34 302.37 222.44 321.43 160.61" style="fill:#BA68C8;opacity:0.30000000000000004"></polygon><polygon points="321.43 160.61 317.14 158.13 298.27 219.34 302.37 222.44 321.43 160.61" style="opacity:0.15"></polygon></g></g><g id="freepik--Arrow--inject-2"><g id="freepik--arrow--inject-2"><polygon points="357.76 90.55 353.47 88.08 342.74 112.86 347.03 115.34 349.18 114.1 349.18 267.21 353.47 269.69 362.06 264.74 362.06 106.67 368.5 102.95 357.76 90.55" style="fill:#BA68C8"></polygon><polygon points="368.5 102.95 357.76 90.55 347.03 115.34 353.47 111.62 353.47 269.69 362.06 264.74 362.06 106.67 368.5 102.95" style="fill:#BA68C8"></polygon><polygon points="342.74 112.86 347.03 115.34 357.76 90.55 353.47 88.08 342.74 112.86" style="opacity:0.15"></polygon><polygon points="349.18 267.21 353.47 269.69 353.47 111.62 349.18 114.1 349.18 267.21" style="opacity:0.15"></polygon></g></g><g id="freepik--magnifying-glass--inject-2"><g id="freepik--Glass--inject-2"><path d="M377.25,365c0-8.08-5.34-16.16-16-22.33-21.36-12.32-56-12.32-77.33,0-10.68,6.17-16,14.25-16,22.33h0v14.88c0,8.08,5.34,16.16,16,22.32,21.35,12.33,56,12.33,77.33,0,10.67-6.16,16-14.24,16-22.32V365Zm-90.7-17.75c9.54-5.5,22.33-8.53,36-8.53s26.49,3,36,8.53c8.62,5,13.37,11.28,13.37,17.75s-4.75,12.76-13.37,17.74c-9.53,5.51-22.33,8.54-36,8.54s-26.48-3-36-8.54c-8.62-5-13.37-11.28-13.37-17.74S277.93,352.18,286.55,347.2Z" style="fill:#BA68C8"></path><path d="M283.9,387.27c21.36,12.33,56,12.33,77.33,0s21.36-32.32,0-44.65-56-12.32-77.33,0S262.55,374.94,283.9,387.27ZM273.18,365c0-6.47,4.74-12.77,13.37-17.75,9.53-5.5,22.33-8.53,36-8.53s26.48,3,36,8.53c8.62,5,13.37,11.28,13.37,17.75s-4.75,12.76-13.37,17.74c-9.54,5.51-22.33,8.54-36,8.54s-26.49-3-36-8.54C277.93,377.71,273.18,371.41,273.18,365Z" style="fill:#fff;opacity:0.30000000000000004"></path><path d="M273.17,365a14.64,14.64,0,0,0,2.14,7.44c2.17-3.75,6-7.27,11.24-10.3,9.53-5.51,22.33-8.54,36-8.54s26.49,3,36,8.54c5.26,3,9.08,6.55,11.26,10.3A14.81,14.81,0,0,0,372,365c0-6.47-4.75-12.77-13.38-17.75-9.52-5.5-22.32-8.54-36-8.54s-26.49,3-36,8.54C277.92,352.18,273.17,358.48,273.17,365Z" style="fill:#BA68C8"></path><path d="M273.17,365a14.64,14.64,0,0,0,2.14,7.44c2.17-3.75,6-7.27,11.24-10.3,9.53-5.51,22.33-8.54,36-8.54s26.49,3,36,8.54c5.26,3,9.08,6.55,11.26,10.3A14.81,14.81,0,0,0,372,365c0-6.47-4.75-12.77-13.38-17.75-9.52-5.5-22.32-8.54-36-8.54s-26.49,3-36,8.54C277.92,352.18,273.17,358.48,273.17,365Z" style="opacity:0.1"></path><path d="M286.55,353.94c9.53-5.5,22.33-8.54,36-8.54s26.48,3,36,8.54c7.11,4.11,11.58,9.12,12.93,14.38-1.35,5.25-5.82,10.26-12.93,14.37-9.54,5.51-22.33,8.54-36,8.54s-26.49-3-36-8.54c-7.12-4.11-11.59-9.12-12.93-14.37C275,363.06,279.43,358.05,286.55,353.94Z" style="fill:#fff;opacity:0.4"></path><path d="M309.68,395.64v14.87a71.61,71.61,0,0,1-25.77-8.36c-10.68-6.16-16-14.24-16-22.32V365a19,19,0,0,1,.65-4.88h0c-2.59,9.61,2.53,19.79,15.36,27.2A71.81,71.81,0,0,0,309.68,395.64Z" style="opacity:0.1"></path><path d="M285.53,396.74a8.47,8.47,0,0,0-3.8-6.65,2.71,2.71,0,0,0-2.7-.28h0l-18.41,10.51h0a2.71,2.71,0,0,0-1.13,2.47,8.48,8.48,0,0,0,3.81,6.65,2.7,2.7,0,0,0,2.71.28h0l18.4-10.5h0A2.67,2.67,0,0,0,285.53,396.74Z" style="fill:#37474f"></path><path d="M284.39,399.22a2.67,2.67,0,0,0,1.14-2.48,7,7,0,0,0-.65-2.86l-23.73,13.57a7.19,7.19,0,0,0,2.13,2,2.7,2.7,0,0,0,2.71.28l18.4-10.5Z" style="fill:#263238"></path><path d="M266.38,409.39a11,11,0,0,0-4.95-8.65,3.51,3.51,0,0,0-3.46-.39h0l0,0h0l-61,32.6,9.1,16.09,58.93-36.45A3.49,3.49,0,0,0,266.38,409.39Z" style="fill:#BA68C8"></path><path d="M206,449.07l58.93-36.45a3.49,3.49,0,0,0,1.48-3.23,10.39,10.39,0,0,0-1.65-5.25l-63.45,36.63Z" style="opacity:0.1"></path><path d="M201.37,448.59a14.45,14.45,0,0,1-6.49-11.35c0-4.18,3-5.86,6.55-3.76a14.46,14.46,0,0,1,6.49,11.36C207.91,449,205,450.69,201.37,448.59Z" style="fill:#BA68C8"></path><g style="opacity:0.2"><path d="M201.37,448.59a14.45,14.45,0,0,1-6.49-11.35c0-4.18,3-5.86,6.55-3.76a14.46,14.46,0,0,1,6.49,11.36C207.91,449,205,450.69,201.37,448.59Z"></path></g></g></g><g id="freepik--light-bulb--inject-2"><g id="freepik--Idea--inject-2"><g id="freepik--Light--inject-2"><path d="M434.31,97.79a2.95,2.95,0,1,1-2.92-3A2.95,2.95,0,0,1,434.31,97.79Z" style="fill:#37474f"></path><path d="M427.83,97.92c-1.94-1.15-1.92-3,0-4.08a7.81,7.81,0,0,1,7.06.08c1.94,1.14,1.92,3,0,4.07A7.78,7.78,0,0,1,427.83,97.92Z" style="fill:#455a64"></path><path d="M427.73,96.85c-2-1.18-2-3.06,0-4.2a8.07,8.07,0,0,1,7.29.08c2,1.18,2,3.06-.05,4.2A8,8,0,0,1,427.73,96.85Z" style="fill:#37474f"></path><path d="M427.63,95.76c-2.06-1.22-2-3.16.05-4.34a8.33,8.33,0,0,1,7.5.08c2.06,1.22,2,3.16-.05,4.34A8.33,8.33,0,0,1,427.63,95.76Z" style="fill:#455a64"></path><path d="M427.53,94.63c-2.13-1.26-2.1-3.26,0-4.47a8.58,8.58,0,0,1,7.74.08c2.12,1.26,2.1,3.26-.05,4.47A8.56,8.56,0,0,1,427.53,94.63Z" style="fill:#37474f"></path><path d="M427.46,93.44c-2.17-1.28-2.14-3.32.05-4.56a8.74,8.74,0,0,1,7.89.09c2.17,1.28,2.15,3.32,0,4.55A8.71,8.71,0,0,1,427.46,93.44Z" style="fill:#455a64"></path><path d="M431.77,59.18a14,14,0,0,0-14.18,13.88c-.12,11.14,9.05,13.08,9,17.57a2.38,2.38,0,0,0,1.39,2,7.55,7.55,0,0,0,6.85.08,2.43,2.43,0,0,0,1.44-2h0c0-4.49,9.25-6.25,9.37-17.38A14,14,0,0,0,431.77,59.18Z" style="fill:#BA68C8"></path><g style="opacity:0.6000000000000001"><path d="M431.77,59.18a14,14,0,0,0-14.18,13.88c-.12,11.14,9.05,13.08,9,17.57a2.38,2.38,0,0,0,1.39,2,7.55,7.55,0,0,0,6.85.08,2.43,2.43,0,0,0,1.44-2h0c0-4.49,9.25-6.25,9.37-17.38A14,14,0,0,0,431.77,59.18Z" style="fill:#fff"></path></g><path d="M428.85,92c-1.41-.84-1.4-2.17,0-3a5.7,5.7,0,0,1,5.15.06c1.41.83,1.4,2.16,0,3A5.7,5.7,0,0,1,428.85,92Z" style="fill:#BA68C8"></path><path d="M433.31,90.24a.47.47,0,0,1-.47-.47,34.46,34.46,0,0,1,1.07-8,18.13,18.13,0,0,1,.72-2.22,6,6,0,0,1-1.21-.61,8.28,8.28,0,0,1-1.84-1.58,8.38,8.38,0,0,1-1.88,1.54,5.83,5.83,0,0,1-1.22.58,17.14,17.14,0,0,1,.67,2.24,33.39,33.39,0,0,1,.9,8,.49.49,0,0,1-.49.46.48.48,0,0,1-.46-.49,33.87,33.87,0,0,0-.87-7.78,16.66,16.66,0,0,0-.69-2.23,3,3,0,0,1-2.65-.81,1.52,1.52,0,0,1-.18-2,1.25,1.25,0,0,1,1.3-.53c.75.15,1.47.93,2.09,2.19a5.39,5.39,0,0,0,1.11-.51A7.46,7.46,0,0,0,431,76.57a3.53,3.53,0,0,1-.67-2.68,1.28,1.28,0,0,1,1.29-.94,1.26,1.26,0,0,1,1.27,1,3.51,3.51,0,0,1-.72,2.67,7.36,7.36,0,0,0,1.76,1.55,5.3,5.3,0,0,0,1.1.54c.64-1.25,1.38-2,2.13-2.16a1.29,1.29,0,0,1,1.29.56,1.52,1.52,0,0,1-.22,2,3,3,0,0,1-2.67.75,17.52,17.52,0,0,0-.73,2.22,33.91,33.91,0,0,0-1,7.76.47.47,0,0,1-.47.48Zm-7.56-12.92a.35.35,0,0,0-.28.17c-.23.32,0,.66.13.76a1.89,1.89,0,0,0,1.52.53c-.5-.94-1-1.39-1.3-1.45ZM436,78.87a1.89,1.89,0,0,0,1.53-.49c.09-.1.37-.44.14-.76s-.25-.19-.34-.17C437,77.51,436.53,77.94,436,78.87Zm-4.4-5c-.24,0-.32.1-.36.26a2.25,2.25,0,0,0,.34,1.56,2.33,2.33,0,0,0,.39-1.56A.34.34,0,0,0,431.61,73.9Z" style="fill:#fff"></path></g><path d="M431.91,53.83a.66.66,0,0,1-.24,0,.9.9,0,0,1-.91-.92l0-4.77a.92.92,0,0,1,.92-.92.93.93,0,0,1,.91.92l0,4.78A.91.91,0,0,1,431.91,53.83Z" style="fill:#e0e0e0"></path><path d="M421.7,56.52a.91.91,0,0,1-1-.43L418.3,52a.93.93,0,0,1,.34-1.26.92.92,0,0,1,1.25.35l2.37,4.14a.92.92,0,0,1-.34,1.25A.85.85,0,0,1,421.7,56.52Z" style="fill:#e0e0e0"></path><path d="M414.21,64a.87.87,0,0,1-.7-.09l-4.13-2.4a.93.93,0,0,1-.33-1.26.92.92,0,0,1,1.25-.33l4.13,2.41a.9.9,0,0,1,.33,1.25A.88.88,0,0,1,414.21,64Z" style="fill:#e0e0e0"></path><path d="M411.44,74.14a1,1,0,0,1-.25,0l-4.77,0a.92.92,0,1,1,0-1.83l4.78,0a.9.9,0,0,1,.91.92A.91.91,0,0,1,411.44,74.14Z" style="fill:#e0e0e0"></path><path d="M453.57,86.9a1,1,0,0,1-.7-.09l-4.13-2.41a.91.91,0,1,1,.92-1.58l4.13,2.4a.92.92,0,0,1-.22,1.68Z" style="fill:#e0e0e0"></path><path d="M409.77,86.9a1,1,0,0,0,.7-.09l4.12-2.41a.91.91,0,1,0-.92-1.58l-4.13,2.4a.92.92,0,0,0,.23,1.68Z" style="fill:#e0e0e0"></path><path d="M457,74.33a1,1,0,0,1-.25,0l-4.78,0a.92.92,0,0,1-.91-.92.9.9,0,0,1,.92-.91l4.78,0a.91.91,0,0,1,.91.92A.92.92,0,0,1,457,74.33Z" style="fill:#e0e0e0"></path><path d="M449.53,64.1a.92.92,0,0,1-.7-1.68L453,60.05a.92.92,0,0,1,.91,1.59L449.74,64A1,1,0,0,1,449.53,64.1Z" style="fill:#e0e0e0"></path><path d="M442.09,56.61a1,1,0,0,1-.7-.09.94.94,0,0,1-.33-1.26l2.41-4.13a.92.92,0,1,1,1.58.93l-2.4,4.12A.92.92,0,0,1,442.09,56.61Z" style="fill:#e0e0e0"></path></g></g><g id="freepik--Character--inject-2"><g id="freepik--character--inject-2"><path d="M383.1,91.15c1.61-.27,1.75,2.86,1.87,6.15.1,3,.32,8.88,1,9s2.53-1.24,4.15-1.35,2.84,1.23,1.67,1.83c-.67.35-2.68,1.94-3.63,2.61s-2.19,1.66-2.27,3,7.24,22.55,7.24,22.55,17.12,10.49,20.83,12.52,5.58,1.85,7.63,3.37c-3.92,2.27-9.56,7.86-12.71,10.88,0,0,.73.42-4.3-3.69-6.1-5-17.2-12-20.88-17-2.61-6.44-6.6-24.93-7.18-26.64-.69-2.06-1.69-3.06-2.23-4.72a15.27,15.27,0,0,1-1.18-5.84,2.12,2.12,0,0,1,.68-1.66c.25-.19.57-.28.82-.47.4-.28.73-.83,1.16-1.06.6-.31,1.52.06,2.1-.29.25-.16.76-.92,1-1a5.33,5.33,0,0,1,1.41.07c.28,0,.85.16,1-.21s0-1.44.32-3.84S382,91.34,383.1,91.15Z" style="fill:#b16668"></path><path d="M421.9,150.47a60.15,60.15,0,0,0-7.27-3.25c-3.51-1.44-21-12.6-21-12.6l-6.36-17.21s-.88,1.78-4.1,2.74a6.39,6.39,0,0,1-5.37-.59s3.84,16.26,4.53,19,1.33,3.82,4,6.24S409,162.93,409,162.93Z" style="fill:#455a64"></path><path d="M382,102.38c-.18,2,.16,4.14-.8,4.76a1.54,1.54,0,0,1-2.22-.78,1.56,1.56,0,0,1-1.06,1.11,1.41,1.41,0,0,1-1.41-.46,1.48,1.48,0,0,1-2.12.36c.26.56,1.16,1.44,2,.55,0,0,1.5.92,2.37-.24,0,0-1.06,1.26-.23,3.62a5.46,5.46,0,0,1,1.07-3.46,2.26,2.26,0,0,0,2.27-.4C382.83,106.52,382,102.38,382,102.38Z" style="fill:#9a4a4d"></path><g id="freepik--Bottom--inject-2"><path d="M458,312.24c-1.89-8.37-1.57-23.5-2.52-31.07-1.12-8.85-7.74-17.62-7.74-17.62s2.8-22.62,3.87-32.7c2.52-23.66-1.89-32.83-4.39-36.39a49.79,49.79,0,0,1-2.71-4.3,37.75,37.75,0,0,1-2.44-5l-32.84.34a42.42,42.42,0,0,0-4.18,18.24c-3.42,12.33-2.85,51.46-2.31,65.62.33,8.48,5.81,45.83,5.93,47,.06.49,1.55,2.64,4.92,2.08s4.27-1.75,4.27-2.1c0-1.23.17-2.59.27-3.81.7-8,3.76-25.06,4.75-33.2a21.07,21.07,0,0,0-2.72-12.85l5-21.9a163.11,163.11,0,0,0,7.23,30.56c3.76,10.74,16.74,42.54,16.74,42.54,1.18,3.34,8.28,1.65,9.2-4.06Z" style="fill:#b16668"></path><path d="M458,312.24c1.78-.3,1.53,5.87,2.58,9.61,1.13,4,3.14,6.73,4.1,10a12.36,12.36,0,0,1-.14,8.89c-.86,2.69-6.55,7.22-9.45,4.14s-4-7-4.35-10.89a60,60,0,0,0-1.56-9.67c-.75-3.19-2.43-8.78-1.13-9.2l.75,1.83c1,1.28,9-.4,9.5-3.33Z" style="fill:#37474f"></path><path d="M419.88,316.62c.45,1.94-.11,7.25-.11,7.25a7.09,7.09,0,0,1-3.86,3l-1.26-7.41Z" style="fill:#263238"></path><polygon points="415.91 326.88 409.34 324.63 407.82 318.76 415.14 322.34 415.91 326.88"></polygon><path d="M407.82,310.08l-.25-1.74c-.9.42-.85,7.59-5.64,12.63-3.53,3.73-7.55,5.91-9.14,7.86-2.12,2.6,2.86,7,9.41,5.67,3.25-.65,8.18-2.67,9.54-4.84s2.29-5.72,3.4-7.32,4.16-2.82,4.88-4.59c.8-1.95.17-4.6-.36-6.42s-.19-3.46-1-3.5l-.18,1.35c-.45.89-3.07,2.05-6.37,2.19C410.59,311.44,408.52,311.51,407.82,310.08Z" style="fill:#37474f"></path><path d="M405.59,197.28s7.3,5.21,21.41,4.26,20.25-7.08,20.25-7.08a31.22,31.22,0,0,1,5.44,13.27c.76,6-.7,24.44-2.12,37.64s-2,17.74-2,17.74,3.16,5.5,5.46,10.38c3,6.28,2.75,26.79,3.28,34.34-2.7,3.09-8.51,4.34-10.63,3.81-3.18-6.73-13.39-32.73-15-37.66a107,107,0,0,1-6.47-29.38l-4,22a31.74,31.74,0,0,1,2.14,8c.72,4.78-2.91,24.24-4.22,30.32-2.11,1.62-7.23,2.91-12,0-.74-5.64-4.1-26.92-4.58-32.88a292.91,292.91,0,0,1-1-35.41A251.78,251.78,0,0,1,405.59,197.28Z" style="fill:#455a64"></path><path d="M425.16,244.6l-1.87-22.07s-8.91-5.2-11.07-9.93a15.21,15.21,0,0,0,7,11.45l3.05,22.33-1.06,20.24Z" style="fill:#37474f"></path></g><g id="freepik--Top--inject-2"><path d="M423.92,135.32a4.7,4.7,0,0,0-.68-1.34,6.17,6.17,0,0,0-1.48-1.11,19.49,19.49,0,0,0-3.3-1.38c-1.93-.68-4-1.59-4.92-3.42a2.32,2.32,0,0,1-.22-1.69,1.19,1.19,0,0,1,1.33-.84,6.41,6.41,0,0,1-1.78-1.89,2.88,2.88,0,0,1-.2-2.52,1.89,1.89,0,0,1,2.13-1.1c-1-1-2.16-2-2.6-3.33a2.78,2.78,0,0,1,.83-3.22c.66-.52,2.64-.56,3.47-.63a54.52,54.52,0,0,0,8.72-1.75,31.1,31.1,0,0,1,10.66-.08c2.9.65,5.49,2,6.77,4.8.33.73.38,1.07,1.1,1.39a13.42,13.42,0,0,1,2.2.87,8.36,8.36,0,0,1,3.21,4.15c.93,2.51.92,5.26,1,7.94s.16,5.45,1.31,7.87c.74,1.57,1.91,3,2.26,4.67a5.18,5.18,0,0,1-7.16,5.79,7.5,7.5,0,0,0,.64-4.28c-.52,2.52-3.08,4.16-5.61,4.66-6.07,1.21-11.57-3.06-14.67-7.91A43.39,43.39,0,0,1,423.92,135.32Z" style="fill:#263238"></path><path d="M417.6,126.79c.1,0-1.46,4.2-1.64,4.57-1.86,3.77-3.52,7.16-1.79,11.18a8.76,8.76,0,0,0,6.29,4.92,17.15,17.15,0,0,0,4.29.27,5.47,5.47,0,0,0,3.24-1.08c.58-.47.37-2,.39-2.75.09-2.83.18-5.67.26-8.5,0-.51.25-8.29.26-8.29Z" style="fill:#263238"></path><path d="M421.8,116.94c-2.07,1-6.36,5.43-6.28,16.06.07,8.83,1.6,10.95,4,12,1.42.66,3.75.65,6.47.45l-.11,5.33s-7.91,5.4-1.82,6.76a13.61,13.61,0,0,0,9.71-2,13.25,13.25,0,0,0,3.94-3.6l1-11.86s1.44,1.68,4.34-.41c2.39-1.72,3.44-4.91,1.88-6.82a4,4,0,0,0-6.38.61s-1.52.81-2.82-2.26a40.13,40.13,0,0,1-7.25-4.12A15.42,15.42,0,0,1,421.8,116.94Z" style="fill:#b16668"></path><path d="M427.91,137.49l-4.84,1.22a2.45,2.45,0,0,0,3,1.89A2.63,2.63,0,0,0,427.91,137.49Z" style="fill:#9a4a4d"></path><path d="M425,140.61a2.3,2.3,0,0,1,2.49-2.08,2.33,2.33,0,0,1,.46.08,2.57,2.57,0,0,1-1.86,2A2.36,2.36,0,0,1,425,140.61Z" style="fill:#f28f8f"></path><path d="M417.69,126.74l2.64-.7a1.31,1.31,0,0,0-1.63-1A1.42,1.42,0,0,0,417.69,126.74Z" style="fill:#263238"></path><path d="M429.65,127.31l2.44,1.21a1.31,1.31,0,0,0-.56-1.82A1.44,1.44,0,0,0,429.65,127.31Z" style="fill:#263238"></path><polygon points="423.65 128.37 422.43 135.73 418.49 134.55 423.65 128.37" style="fill:#9a4a4d"></polygon><path d="M426,145.49c2.86-.11,9.18-2.27,10.3-4.49a6,6,0,0,1-2.49,3.68c-2.8,1.6-7.84,2.54-7.84,2.54Z" style="fill:#9a4a4d"></path><path d="M438.72,131.29l-.43,4.62h0a3.16,3.16,0,0,1-2.85-3.44l.4-4.27Z" style="fill:#263238"></path><path d="M419.52,129.49a1.27,1.27,0,0,1-1.14,1.33,1.18,1.18,0,0,1-1.3-1.1,1.26,1.26,0,0,1,1.14-1.32A1.18,1.18,0,0,1,419.52,129.49Z" style="fill:#263238"></path><path d="M428.86,129.86a1.28,1.28,0,0,1-1.15,1.33,1.19,1.19,0,0,1-1.3-1.1,1.26,1.26,0,0,1,1.15-1.32A1.19,1.19,0,0,1,428.86,129.86Z" style="fill:#263238"></path><path d="M442.1,185.2l4.19-14.52c2.23-6.64,1.56-11.07,1.1-13.16-.76-2.93-9.69-5.56-9.69-5.56-1.36-.43-5.39-.46-6.63-.66l-9.17-.83a42.56,42.56,0,0,0-13.6,11.86c-3,3.89-5.81,9.4.25,15.34a18.35,18.35,0,0,0,.71,7.87" style="fill:#b16668"></path><path d="M425.87,150.82s-12.6,13-5.54,13.9c7.89,1,14.77-7.25,17.37-12.76,0,0,7,2,8.78,2.57s2.5,6.15,1.08,12.65S442.68,185,442.68,185l4.57,9.51a30.48,30.48,0,0,1-21.73,8.33c-13.79-.22-19.93-5.51-19.93-5.51l2.93-11.88a19.37,19.37,0,0,1-.36-7.59s-3.48-3-3.53-7.31c-.05-4.48,2.27-7.49,6.65-12.24a54.65,54.65,0,0,1,10-7.88Z" style="fill:#263238"></path><path d="M435.39,177.64a9.46,9.46,0,0,1-9.33,4.25,9.94,9.94,0,0,1-8-5.95s-.3,6.94,7.87,7.61S435.39,177.64,435.39,177.64Z" style="opacity:0.2"></path></g><path d="M435,214.12v30.8a.64.64,0,0,0,.25.58l1.39.81a.54.54,0,0,0,.22,0,.81.81,0,0,0,.4-.11l34.91-20.16a2,2,0,0,0,.9-1.57V193.76a.65.65,0,0,0-.26-.58l-.06,0h0l-1.3-.77a.6.6,0,0,0-.23-.06.8.8,0,0,0-.4.12L452.48,203l-2.17,1.25-3.24,1.86-.08.05-11.11,6.41a1,1,0,0,0-.18.13,2.12,2.12,0,0,0-.72,1.43Z" style="fill:#BA68C8"></path><path d="M435.25,213.24l1.34.78h0l.13-.2a2.72,2.72,0,0,1,.32-.35l.19-.13,11.1-6.4,3.29-1.89,1.33-.76,19.17-11.06a.63.63,0,0,1,.58-.08l-1.3-.77a.6.6,0,0,0-.23-.06.77.77,0,0,0-.4.12L452.48,203l-2.17,1.25-3.24,1.86-.08.05-11.11,6.41a1,1,0,0,0-.18.13A1.75,1.75,0,0,0,435.25,213.24Z" style="fill:#fff;opacity:0.5"></path><path d="M473,193.75l0,30.77a2,2,0,0,1-.91,1.56l-35,20.21a.53.53,0,0,1-.8-.46V214.91a1.77,1.77,0,0,1,.27-.89,1.8,1.8,0,0,1,.64-.67l11.1-6.41,3.29-1.88,20.5-11.83a.65.65,0,0,1,.59-.08l0,0h0A.65.65,0,0,1,473,193.75Z" style="fill:#BA68C8"></path><path d="M436.59,214h0l.13-.2C436.68,213.88,436.64,214,436.59,214Z" style="fill:#BA68C8"></path><path d="M436.66,246.32h0l-1.4-.81a.66.66,0,0,1-.24-.58v-30.8a1.8,1.8,0,0,1,.27-.89l1.35.79h0a1.93,1.93,0,0,0-.26.89v30.92A.52.52,0,0,0,436.66,246.32Z" style="opacity:0.2"></path><path d="M464.23,196c-7.48-30.57-11.33-39.95-20.41-39.83-2.65,3.17.14,13,1.9,17.83,0,0,8,19.63,9.52,26.64,1.32,6.16,2.8,13.91,2.71,19.2a3.88,3.88,0,0,1-1,2.52c-1.71,1.85-1.72,3.34-2.82,5.39-.87,1.6-1.82,2.2-1.55,2.56a2.08,2.08,0,0,0,2.81.2,10.49,10.49,0,0,0,2.13-2,23.92,23.92,0,0,1-1.66,7l-1.9,1.1s.58,2,5.17.66c5.19-1.49,7-2.13,7.59-10.93a67.51,67.51,0,0,0,.1-9.73C466,208.26,465.44,200.93,464.23,196Z" style="fill:#b16668"></path><path d="M443.59,153.65s9.17,2,11.36,5.4c2.54,3.89,3.5,8.9,7.77,24.07a131.8,131.8,0,0,1,4.86,34.94s-5.35,2.49-10.28-.35c0,0-2.18-13.2-4.12-20.22S445,175.26,445,175.26,440.13,164.21,443.59,153.65Z" style="fill:#455a64"></path><path d="M434.34,239.5c-.42.26-.6-.53-.7-1.69l0-2.13s-1.63,1.46-2-3.49c-.44-5.44,2-6.44,2-6.44s0-.9,0-2.69.38-2.23.79-2.53l.61-.31v18.9S434.76,239.24,434.34,239.5Z" style="fill:#37474f"></path><path d="M436.34,236.81c0-1.62.15-2.58,1.19-3.22,1.19-.73,1.7-1,1.7-1l.31-10s-1.72,1.16-2.31,1.5-.92-1.7-.89-2.3l-1.41.64-.16,15.47Z" style="fill:#37474f"></path><path d="M439.72,235.84l-1.23.74c-.67.4-1-1.68-.67-4.65l-.28-6.62c.3-3,.35-5.7,1-6.11l1.23-.74Z" style="fill:#37474f"></path></g></g></svg>